<?xml version="1.0" encoding="UTF-8"?>
<svg xmlns="http://www.w3.org/2000/svg" xmlns:xlink="http://www.w3.org/1999/xlink" width="2100" height="2100" viewBox="0 0 2100 2100">

<path fill-rule="nonzero" fill="rgb(0%, 0%, 0%)" fill-opacity="1" d="M 697.457031 1709.796875 C 639.964844 1694.234375 610.84375 1651.226562 610.761719 1581.757812 C 610.710938 1544.011719 616.480469 1518.8125 632.363281 1487.316406 C 676.515625 1399.753906 737.734375 1368.277344 813.703125 1394.070312 C 833.9375 1400.9375 851.476562 1400.554688 859.519531 1393.0625 C 865.605469 1387.394531 888.246094 1326.671875 939.824219 1177.703125 C 950.902344 1145.703125 960.628906 1117.441406 961.433594 1114.902344 C 962.242188 1112.363281 966.9375 1125.453125 971.875 1143.996094 C 984.429688 1191.171875 995.347656 1207.882812 1029.960938 1232.890625 L 1039.21875 1239.585938 L 1023.308594 1249.796875 C 1014.558594 1255.414062 1004.199219 1263.40625 1000.300781 1267.558594 C 996.105469 1272.027344 970.304688 1336.421875 937.136719 1425.203125 C 906.300781 1507.753906 877.039062 1583.292969 872.117188 1593.070312 C 847.085938 1642.769531 808.699219 1685.292969 774.078125 1701.671875 C 754.855469 1710.765625 716.183594 1714.867188 697.457031 1709.796875 Z M 759.800781 1659.398438 C 827.203125 1628.019531 857.515625 1522.003906 815.441406 1464.792969 C 797.992188 1441.066406 765.726562 1431.5 735.894531 1441.207031 C 683.746094 1458.175781 644.203125 1531.261719 653.996094 1592.574219 C 663.667969 1653.109375 710.191406 1682.492188 759.800781 1659.398438 Z M 1338.800781 1706.753906 C 1297.03125 1692.902344 1257.769531 1652.785156 1227.539062 1593.070312 C 1222.589844 1583.292969 1194.050781 1508.390625 1164.109375 1426.625 C 1134.179688 1344.855469 1107 1274.308594 1103.71875 1269.851562 C 1100.441406 1265.394531 1086.960938 1254.167969 1073.769531 1244.90625 C 1017.46875 1205.367188 1011.558594 1200.3125 1002.359375 1183.84375 C 991.671875 1164.71875 836.371094 600.820312 831.746094 564.351562 C 828.980469 542.558594 831.671875 508.910156 837.863281 487.96875 C 839.636719 481.960938 850.0625 457.570312 861.027344 433.78125 C 877.242188 398.589844 882.445312 390.140625 888.882812 388.519531 C 893.734375 387.308594 898.429688 388.261719 901.007812 391 C 903.324219 393.449219 916.910156 431.089844 931.199219 474.648438 C 1148.808594 1138.023438 1225.078125 1366.4375 1235.5 1385.90625 C 1237.230469 1389.132812 1243.070312 1393.609375 1248.480469 1395.847656 C 1257 1399.378906 1262.769531 1398.789062 1291.539062 1391.445312 C 1330.140625 1381.589844 1341.199219 1381.089844 1365.179688 1388.097656 C 1403.53125 1399.3125 1437.371094 1430.871094 1462.589844 1478.929688 C 1479.308594 1510.796875 1484.171875 1526.160156 1487.980469 1559.128906 C 1493.371094 1605.839844 1481.320312 1650.308594 1455.738281 1678.050781 C 1428.851562 1707.230469 1377.929688 1719.726562 1338.800781 1706.753906 Z M 1392.429688 1663.84375 C 1400.808594 1661.550781 1410.710938 1654.789062 1420.578125 1644.617188 C 1440.960938 1623.609375 1447.160156 1602.808594 1445.039062 1562.554688 C 1443.730469 1537.667969 1441.761719 1529.511719 1431.910156 1508.210938 C 1391.058594 1419.890625 1294.089844 1411.390625 1269.570312 1493.980469 C 1255.488281 1541.371094 1271.480469 1599.464844 1308.941406 1637.066406 C 1334.480469 1662.691406 1363.089844 1671.871094 1392.429688 1663.84375 Z M 1064.039062 1093.808594 C 1084.621094 1083.179688 1083.070312 1052.660156 1061.5 1043.71875 C 1034.570312 1032.570312 1009.578125 1070.691406 1031.390625 1089.671875 C 1042.371094 1099.230469 1051.371094 1100.367188 1064.039062 1093.808594 Z M 1137.539062 1056.488281 C 1136.5 1053.820312 1118.660156 1000 1097.890625 936.890625 L 1060.140625 822.140625 L 1130.609375 612.03125 C 1169.359375 496.46875 1203.699219 399.109375 1206.910156 395.679688 C 1218.351562 383.46875 1226.050781 392.109375 1248.261719 442.109375 C 1273.429688 498.75 1280.191406 530.960938 1274.679688 567.980469 C 1272.148438 584.980469 1154.320312 1015.320312 1140.480469 1058.109375 C 1139.910156 1059.878906 1138.578125 1059.160156 1137.539062 1056.488281 Z M 1137.539062 1056.488281 "/>
</svg>
